<svg width="743" height="306" viewBox="0 0 743 306" fill="none" xmlns="http://www.w3.org/2000/svg">
<path fill-rule="evenodd" clip-rule="evenodd" d="M26.1259 197.517L26.1251 197.517L26.1244 197.518C26.1244 197.518 25.9614 197.668 25.8585 197.765C25.7331 197.884 25.5409 198.072 25.5409 198.072C19.533 203.488 10.2678 203.303 4.48236 197.517C-1.30308 191.733 -1.48801 182.467 3.92755 176.459L4.48236 175.875L42.642 137.715L5.05191 100.125C-0.924574 94.1486 -0.924574 84.4588 5.05191 78.4824C11.0284 72.5059 20.7182 72.5059 26.6947 78.4824L26.7045 78.4922L75.1061 126.894C81.0824 132.87 81.0824 142.56 75.1061 148.537L75.0992 148.544C75.0992 148.544 45.1783 178.319 26.1259 197.517Z" fill="#04E824"/>
<path d="M135.834 166.4C135.834 171.867 136.768 176.533 138.634 180.4C140.501 184.267 143.101 187.467 146.434 190C149.768 192.4 153.568 194.2 157.834 195.4C162.234 196.467 166.968 197 172.034 197C177.501 197 182.168 196.4 186.034 195.2C189.901 193.867 193.034 192.2 195.434 190.2C197.834 188.2 199.568 185.933 200.634 183.4C201.701 180.733 202.234 178.067 202.234 175.4C202.234 169.933 200.968 165.933 198.434 163.4C196.034 160.733 193.368 158.867 190.434 157.8C185.368 155.933 179.434 154.2 172.634 152.6C165.968 150.867 157.701 148.667 147.834 146C141.701 144.4 136.568 142.333 132.434 139.8C128.434 137.133 125.234 134.2 122.834 131C120.434 127.8 118.701 124.4 117.634 120.8C116.701 117.2 116.234 113.533 116.234 109.8C116.234 102.6 117.701 96.4 120.634 91.2C123.701 85.8667 127.701 81.4667 132.634 78C137.568 74.5333 143.168 72 149.434 70.4C155.701 68.6667 162.034 67.8 168.434 67.8C175.901 67.8 182.901 68.8 189.434 70.8C196.101 72.6667 201.901 75.5333 206.834 79.4C211.901 83.2667 215.901 88.0667 218.834 93.8C221.768 99.4 223.234 105.933 223.234 113.4H198.234C197.568 104.2 194.434 97.7333 188.834 94C183.234 90.1333 176.101 88.2 167.434 88.2C164.501 88.2 161.501 88.5333 158.434 89.2C155.368 89.7333 152.568 90.7333 150.034 92.2C147.501 93.5333 145.368 95.4 143.634 97.8C142.034 100.2 141.234 103.2 141.234 106.8C141.234 111.867 142.768 115.867 145.834 118.8C149.034 121.6 153.168 123.733 158.234 125.2C158.768 125.333 160.834 125.933 164.434 127C168.168 127.933 172.301 129 176.834 130.2C181.368 131.4 185.768 132.6 190.034 133.8C194.434 134.867 197.568 135.667 199.434 136.2C204.101 137.667 208.168 139.667 211.634 142.2C215.101 144.733 217.968 147.667 220.234 151C222.634 154.2 224.368 157.667 225.434 161.4C226.634 165.133 227.234 168.867 227.234 172.6C227.234 180.6 225.568 187.467 222.234 193.2C219.034 198.8 214.768 203.4 209.434 207C204.101 210.6 198.034 213.2 191.234 214.8C184.434 216.533 177.501 217.4 170.434 217.4C162.301 217.4 154.634 216.4 147.434 214.4C140.234 212.4 133.968 209.333 128.634 205.2C123.301 201.067 119.034 195.8 115.834 189.4C112.634 182.867 110.968 175.2 110.834 166.4H135.834ZM235.122 71.2H260.522L286.322 180.4H286.722L315.522 71.2H341.122L369.122 180.4H369.522L396.122 71.2H421.522L382.122 214H356.722L328.122 104.8H327.722L298.522 214H272.722L235.122 71.2ZM437.989 71.2H540.789V92.8H462.989V130.2H534.989V150.6H462.989V192.4H542.189V214H437.989V71.2Z" fill="white"/>
<path d="M647.477 232.4C633.61 232.4 620.877 230.133 609.277 225.6C597.81 221.067 587.877 214.6 579.477 206.2C571.077 197.933 564.543 188.2 559.877 177C555.343 165.667 553.077 153.2 553.077 139.6C553.077 126 555.343 113.6 559.877 102.4C564.543 91.0667 571.077 81.2667 579.477 73C587.877 64.7333 597.81 58.3333 609.277 53.8C620.877 49.2667 633.61 47 647.477 47C660.143 47 671.743 49.2667 682.277 53.8C692.81 58.3333 701.943 64.7333 709.677 73C717.41 81.2667 723.343 91.0667 727.477 102.4C731.743 113.6 733.877 126 733.877 139.6H717.877C717.877 128.267 716.143 117.867 712.677 108.4C709.21 98.9333 704.343 90.7333 698.077 83.8C691.81 76.8667 684.343 71.5333 675.677 67.8C667.143 64.0667 657.743 62.2 647.477 62.2C636.01 62.2 625.477 64.0667 615.877 67.8C606.277 71.5333 597.943 76.8667 590.877 83.8C583.943 90.7333 578.543 98.9333 574.677 108.4C570.943 117.867 569.077 128.267 569.077 139.6C569.077 150.933 570.943 161.333 574.677 170.8C578.543 180.267 583.943 188.467 590.877 195.4C597.943 202.333 606.277 207.667 615.877 211.4C625.477 215.267 636.01 217.2 647.477 217.2C652.543 217.2 658.01 216.467 663.877 215C669.877 213.667 674.877 211.933 678.877 209.8L686.877 222C681.277 225.067 674.743 227.533 667.277 229.4C659.943 231.4 653.343 232.4 647.477 232.4ZM636.677 187C628.143 187 620.543 185 613.877 181C607.343 176.867 602.21 171.2 598.477 164C594.743 156.8 592.877 148.6 592.877 139.4C592.877 130.067 594.743 121.867 598.477 114.8C602.21 107.733 607.343 102.2 613.877 98.2C620.543 94.0667 628.143 92 636.677 92C645.077 92 652.477 94.0667 658.877 98.2C665.41 102.2 670.543 107.733 674.277 114.8C678.01 121.867 679.877 130.067 679.877 139.4C679.877 148.6 678.01 156.8 674.277 164C670.543 171.2 665.41 176.867 658.877 181C652.477 185 645.077 187 636.677 187ZM641.477 170.6C647.21 170.6 652.277 169.267 656.677 166.6C661.077 163.933 664.477 160.267 666.877 155.6C669.41 150.8 670.677 145.4 670.677 139.4C670.677 133.267 669.41 127.933 666.877 123.4C664.343 118.867 660.81 115.267 656.277 112.6C651.877 109.933 646.81 108.6 641.077 108.6C635.21 108.6 630.077 109.933 625.677 112.6C621.277 115.133 617.81 118.733 615.277 123.4C612.743 127.933 611.477 133.267 611.477 139.4C611.477 145.4 612.743 150.8 615.277 155.6C617.943 160.267 621.477 163.933 625.877 166.6C630.41 169.267 635.61 170.6 641.477 170.6ZM694.877 193C689.943 193 685.61 192 681.877 190C678.277 188.133 675.477 185.4 673.477 181.8C671.61 178.067 670.677 173.733 670.677 168.8L687.477 168.2C687.477 171.533 688.277 174.133 689.877 176C691.477 177.733 693.543 178.6 696.077 178.6C700.343 178.6 704.077 176.933 707.277 173.6C710.61 170.267 713.21 165.667 715.077 159.8C716.943 153.933 717.877 147.2 717.877 139.6H733.877C733.877 150 732.21 159.2 728.877 167.2C725.543 175.2 720.943 181.533 715.077 186.2C709.21 190.733 702.477 193 694.877 193ZM670.677 168.8L670.077 94.2H687.477V168.2L670.677 168.8Z" fill="#04E824"/>
<path d="M27.4648 296V268H43.5848V270.32H30.0248V280.4H42.6248V282.72H30.0248V293.68H43.5848V296H27.4648ZM56.0958 296L64.4958 276H67.0158L58.5758 296H56.0958ZM56.0158 296L47.5758 276H50.0558L58.4558 296H56.0158ZM78.6595 296.48C76.7395 296.48 75.0329 296.04 73.5395 295.16C72.0729 294.253 70.9129 293.013 70.0595 291.44C69.2329 289.867 68.8195 288.053 68.8195 286C68.8195 283.947 69.2329 282.133 70.0595 280.56C70.8862 278.987 72.0195 277.76 73.4595 276.88C74.9262 275.973 76.5929 275.52 78.4595 275.52C80.3529 275.52 81.9529 275.987 83.2595 276.92C84.5929 277.827 85.6062 279.093 86.2995 280.72C86.9929 282.32 87.3395 284.173 87.3395 286.28H70.2595L71.1795 285.52C71.1795 287.36 71.4862 288.933 72.0995 290.24C72.7129 291.547 73.5795 292.547 74.6995 293.24C75.8462 293.933 77.1662 294.28 78.6595 294.28C80.2062 294.28 81.5129 293.907 82.5795 293.16C83.6729 292.387 84.5262 291.4 85.1395 290.2L87.1395 291.44C86.6329 292.427 85.9662 293.307 85.1395 294.08C84.3395 294.827 83.3929 295.413 82.2995 295.84C81.2062 296.267 79.9929 296.48 78.6595 296.48ZM71.3795 284.8L70.3795 284.08H85.7795L84.7795 284.84C84.7795 283.427 84.5129 282.187 83.9795 281.12C83.4729 280.053 82.7529 279.227 81.8195 278.64C80.8862 278.027 79.7662 277.72 78.4595 277.72C77.1795 277.72 75.9929 278.027 74.8995 278.64C73.8329 279.227 72.9795 280.053 72.3395 281.12C71.6995 282.16 71.3795 283.387 71.3795 284.8ZM92.7383 285.04C92.7383 282.88 93.1383 281.133 93.9383 279.8C94.7649 278.467 95.8183 277.493 97.0983 276.88C98.4049 276.24 99.7783 275.92 101.218 275.92V278.12C100.045 278.12 98.9116 278.333 97.8183 278.76C96.7516 279.16 95.8716 279.853 95.1783 280.84C94.4849 281.8 94.1383 283.12 94.1383 284.8L92.7383 285.04ZM91.7383 296V276H94.1383V296H91.7383ZM105.589 304.48C105.162 304.48 104.656 304.4 104.069 304.24C103.482 304.08 102.802 303.84 102.029 303.52L102.909 301.48C103.602 301.747 104.189 301.947 104.669 302.08C105.149 302.213 105.522 302.28 105.789 302.28C106.562 302.28 107.189 302.067 107.669 301.64C108.176 301.213 108.589 300.627 108.909 299.88L111.189 294.44L118.989 276H121.509L111.709 299.2C111.229 300.32 110.722 301.267 110.189 302.04C109.682 302.84 109.056 303.44 108.309 303.84C107.589 304.267 106.682 304.48 105.589 304.48ZM110.509 296L102.069 276H104.549L112.269 294.4L112.949 296H110.509ZM134.902 296V268H137.302V296H134.902ZM143.461 296V276H145.861V296H143.461ZM144.701 270.8C144.274 270.8 143.901 270.64 143.581 270.32C143.261 270 143.101 269.627 143.101 269.2C143.101 268.747 143.261 268.373 143.581 268.08C143.901 267.76 144.274 267.6 144.701 267.6C145.154 267.6 145.527 267.76 145.821 268.08C146.141 268.373 146.301 268.747 146.301 269.2C146.301 269.627 146.141 270 145.821 270.32C145.527 270.64 145.154 270.8 144.701 270.8ZM152.09 296V276H154.33L154.49 279.68V296H152.09ZM166.45 296V285.76H168.85V296H166.45ZM166.45 285.76C166.45 283.547 166.183 281.867 165.65 280.72C165.143 279.573 164.437 278.8 163.53 278.4C162.65 277.973 161.65 277.76 160.53 277.76C158.637 277.76 157.157 278.467 156.09 279.88C155.023 281.267 154.49 283.213 154.49 285.72H153.01C153.01 283.587 153.317 281.76 153.93 280.24C154.543 278.72 155.437 277.56 156.61 276.76C157.81 275.933 159.263 275.52 160.97 275.52C162.517 275.52 163.877 275.84 165.05 276.48C166.25 277.093 167.183 278.08 167.85 279.44C168.543 280.8 168.877 282.6 168.85 284.84V285.76H166.45ZM182.878 296.48C180.958 296.48 179.252 296.04 177.758 295.16C176.292 294.253 175.132 293.013 174.278 291.44C173.452 289.867 173.038 288.053 173.038 286C173.038 283.947 173.452 282.133 174.278 280.56C175.105 278.987 176.238 277.76 177.678 276.88C179.145 275.973 180.812 275.52 182.678 275.52C184.572 275.52 186.172 275.987 187.478 276.92C188.812 277.827 189.825 279.093 190.518 280.72C191.212 282.32 191.558 284.173 191.558 286.28H174.478L175.398 285.52C175.398 287.36 175.705 288.933 176.318 290.24C176.932 291.547 177.798 292.547 178.918 293.24C180.065 293.933 181.385 294.28 182.878 294.28C184.425 294.28 185.732 293.907 186.798 293.16C187.892 292.387 188.745 291.4 189.358 290.2L191.358 291.44C190.852 292.427 190.185 293.307 189.358 294.08C188.558 294.827 187.612 295.413 186.518 295.84C185.425 296.267 184.212 296.48 182.878 296.48ZM175.598 284.8L174.598 284.08H189.998L188.998 284.84C188.998 283.427 188.732 282.187 188.198 281.12C187.692 280.053 186.972 279.227 186.038 278.64C185.105 278.027 183.985 277.72 182.678 277.72C181.398 277.72 180.212 278.027 179.118 278.64C178.052 279.227 177.198 280.053 176.558 281.12C175.918 282.16 175.598 283.387 175.598 284.8ZM214.597 296.48C212.677 296.48 210.97 296.04 209.477 295.16C208.01 294.253 206.85 293.013 205.997 291.44C205.17 289.867 204.757 288.053 204.757 286C204.757 283.947 205.17 282.133 205.997 280.56C206.824 278.987 207.97 277.76 209.437 276.88C210.93 275.973 212.624 275.52 214.517 275.52C216.437 275.52 218.13 275.973 219.597 276.88C221.09 277.76 222.25 278.987 223.077 280.56C223.904 282.133 224.317 283.947 224.317 286C224.317 288.053 223.904 289.867 223.077 291.44C222.25 293.013 221.104 294.253 219.637 295.16C218.17 296.04 216.49 296.48 214.597 296.48ZM214.597 294.28C216.037 294.28 217.304 293.933 218.397 293.24C219.49 292.52 220.344 291.547 220.957 290.32C221.597 289.067 221.917 287.627 221.917 286C221.917 284.373 221.597 282.947 220.957 281.72C220.344 280.467 219.477 279.493 218.357 278.8C217.237 278.08 215.957 277.72 214.517 277.72C213.077 277.72 211.797 278.08 210.677 278.8C209.584 279.493 208.717 280.467 208.077 281.72C207.464 282.947 207.157 284.373 207.157 286C207.157 287.627 207.477 289.067 208.117 290.32C208.757 291.547 209.637 292.52 210.757 293.24C211.877 293.933 213.157 294.28 214.597 294.28ZM231.121 296V273.6C231.121 271.547 231.588 270.027 232.521 269.04C233.454 268.027 234.868 267.52 236.761 267.52C237.188 267.52 237.694 267.6 238.281 267.76C238.868 267.92 239.548 268.16 240.321 268.48L239.441 270.52C238.748 270.253 238.161 270.053 237.681 269.92C237.228 269.787 236.854 269.72 236.561 269.72C235.548 269.72 234.788 270.04 234.281 270.68C233.774 271.32 233.521 272.293 233.521 273.6V296H231.121ZM227.321 278.2V276H239.641V278.2H227.321ZM262.175 296.48C260.255 296.48 258.548 296.04 257.055 295.16C255.588 294.253 254.428 293.013 253.575 291.44C252.748 289.867 252.335 288.053 252.335 286C252.335 283.947 252.748 282.133 253.575 280.56C254.402 278.987 255.548 277.76 257.015 276.88C258.508 275.973 260.202 275.52 262.095 275.52C263.988 275.52 265.668 275.947 267.135 276.8C268.602 277.627 269.735 278.787 270.535 280.28L268.455 281.4C267.842 280.253 266.975 279.36 265.855 278.72C264.762 278.053 263.508 277.72 262.095 277.72C260.655 277.72 259.375 278.08 258.255 278.8C257.162 279.493 256.295 280.467 255.655 281.72C255.042 282.947 254.735 284.373 254.735 286C254.735 287.627 255.055 289.067 255.695 290.32C256.335 291.547 257.215 292.52 258.335 293.24C259.455 293.933 260.735 294.28 262.175 294.28C263.615 294.28 264.895 293.92 266.015 293.2C267.135 292.453 267.988 291.427 268.575 290.12L270.695 291.24C269.895 292.867 268.748 294.147 267.255 295.08C265.788 296.013 264.095 296.48 262.175 296.48ZM283.738 296.48C281.818 296.48 280.111 296.04 278.618 295.16C277.151 294.253 275.991 293.013 275.138 291.44C274.311 289.867 273.898 288.053 273.898 286C273.898 283.947 274.311 282.133 275.138 280.56C275.964 278.987 277.111 277.76 278.578 276.88C280.071 275.973 281.764 275.52 283.658 275.52C285.578 275.52 287.271 275.973 288.738 276.88C290.231 277.76 291.391 278.987 292.218 280.56C293.044 282.133 293.458 283.947 293.458 286C293.458 288.053 293.044 289.867 292.218 291.44C291.391 293.013 290.244 294.253 288.778 295.16C287.311 296.04 285.631 296.48 283.738 296.48ZM283.738 294.28C285.178 294.28 286.444 293.933 287.538 293.24C288.631 292.52 289.484 291.547 290.098 290.32C290.738 289.067 291.058 287.627 291.058 286C291.058 284.373 290.738 282.947 290.098 281.72C289.484 280.467 288.618 279.493 287.498 278.8C286.378 278.08 285.098 277.72 283.658 277.72C282.218 277.72 280.938 278.08 279.818 278.8C278.724 279.493 277.858 280.467 277.218 281.72C276.604 282.947 276.298 284.373 276.298 286C276.298 287.627 276.618 289.067 277.258 290.32C277.898 291.547 278.778 292.52 279.898 293.24C281.018 293.933 282.298 294.28 283.738 294.28ZM313.262 296L313.142 292.28V268H315.542V296H313.262ZM306.102 296.48C304.342 296.48 302.782 296.04 301.422 295.16C300.062 294.253 298.995 293.013 298.222 291.44C297.448 289.84 297.062 288.027 297.062 286C297.062 283.947 297.448 282.133 298.222 280.56C298.995 278.987 300.062 277.76 301.422 276.88C302.782 275.973 304.342 275.52 306.102 275.52C307.808 275.52 309.302 275.973 310.582 276.88C311.888 277.76 312.902 278.987 313.622 280.56C314.368 282.133 314.742 283.947 314.742 286C314.742 288.027 314.368 289.84 313.622 291.44C312.902 293.013 311.888 294.253 310.582 295.16C309.302 296.04 307.808 296.48 306.102 296.48ZM306.582 294.32C307.862 294.32 308.995 293.973 309.982 293.28C310.968 292.56 311.742 291.573 312.302 290.32C312.862 289.067 313.142 287.627 313.142 286C313.142 284.373 312.862 282.933 312.302 281.68C311.742 280.427 310.968 279.453 309.982 278.76C308.995 278.04 307.848 277.68 306.542 277.68C305.155 277.68 303.928 278.04 302.862 278.76C301.795 279.453 300.955 280.427 300.342 281.68C299.755 282.933 299.462 284.373 299.462 286C299.462 287.627 299.768 289.067 300.382 290.32C300.995 291.573 301.835 292.56 302.902 293.28C303.968 293.973 305.195 294.32 306.582 294.32ZM330.183 296.48C328.263 296.48 326.556 296.04 325.063 295.16C323.596 294.253 322.436 293.013 321.583 291.44C320.756 289.867 320.343 288.053 320.343 286C320.343 283.947 320.756 282.133 321.583 280.56C322.41 278.987 323.543 277.76 324.983 276.88C326.45 275.973 328.116 275.52 329.983 275.52C331.876 275.52 333.476 275.987 334.783 276.92C336.116 277.827 337.13 279.093 337.823 280.72C338.516 282.32 338.863 284.173 338.863 286.28H321.783L322.703 285.52C322.703 287.36 323.01 288.933 323.623 290.24C324.236 291.547 325.103 292.547 326.223 293.24C327.37 293.933 328.69 294.28 330.183 294.28C331.73 294.28 333.036 293.907 334.103 293.16C335.196 292.387 336.05 291.4 336.663 290.2L338.663 291.44C338.156 292.427 337.49 293.307 336.663 294.08C335.863 294.827 334.916 295.413 333.823 295.84C332.73 296.267 331.516 296.48 330.183 296.48ZM322.903 284.8L321.903 284.08H337.303L336.303 284.84C336.303 283.427 336.036 282.187 335.503 281.12C334.996 280.053 334.276 279.227 333.343 278.64C332.41 278.027 331.29 277.72 329.983 277.72C328.703 277.72 327.516 278.027 326.423 278.64C325.356 279.227 324.503 280.053 323.863 281.12C323.223 282.16 322.903 283.387 322.903 284.8ZM353.422 296V276H355.822V296H353.422ZM354.662 270.8C354.235 270.8 353.862 270.64 353.542 270.32C353.222 270 353.062 269.627 353.062 269.2C353.062 268.747 353.222 268.373 353.542 268.08C353.862 267.76 354.235 267.6 354.662 267.6C355.115 267.6 355.488 267.76 355.782 268.08C356.102 268.373 356.262 268.747 356.262 269.2C356.262 269.627 356.102 270 355.782 270.32C355.488 270.64 355.115 270.8 354.662 270.8ZM368.851 296.48C367.331 296.48 366.024 296.253 364.931 295.8C363.837 295.347 362.944 294.76 362.251 294.04C361.584 293.32 361.117 292.573 360.851 291.8L363.011 291C363.464 291.987 364.184 292.787 365.171 293.4C366.184 293.987 367.264 294.28 368.411 294.28C369.824 294.28 371.024 293.987 372.011 293.4C372.997 292.813 373.491 291.987 373.491 290.92C373.491 289.96 373.131 289.173 372.411 288.56C371.691 287.947 370.624 287.453 369.211 287.08L367.251 286.56C365.464 286.08 364.077 285.387 363.091 284.48C362.131 283.547 361.651 282.507 361.651 281.36C361.651 279.52 362.251 278.093 363.451 277.08C364.677 276.04 366.517 275.52 368.971 275.52C370.117 275.52 371.144 275.693 372.051 276.04C372.984 276.36 373.771 276.827 374.411 277.44C375.077 278.053 375.571 278.787 375.891 279.64L373.731 280.56C373.304 279.52 372.677 278.787 371.851 278.36C371.024 277.933 369.944 277.72 368.611 277.72C367.197 277.72 366.077 278.027 365.251 278.64C364.451 279.227 364.051 280.067 364.051 281.16C364.051 281.747 364.371 282.333 365.011 282.92C365.677 283.48 366.664 283.933 367.971 284.28L369.691 284.72C370.997 285.04 372.104 285.507 373.011 286.12C373.944 286.707 374.651 287.387 375.131 288.16C375.637 288.933 375.891 289.787 375.891 290.72C375.891 291.92 375.584 292.96 374.971 293.84C374.357 294.693 373.517 295.347 372.451 295.8C371.411 296.253 370.211 296.48 368.851 296.48ZM408.604 296L415.444 276H417.844L411.044 296H408.604ZM394.924 296L401.804 276H404.204L397.364 296H394.924ZM394.884 296L388.084 276H390.484L397.324 296H394.884ZM408.604 296L401.804 276H404.204L411.044 296H408.604ZM429.48 296.48C427.56 296.48 425.853 296.04 424.36 295.16C422.893 294.253 421.733 293.013 420.88 291.44C420.053 289.867 419.64 288.053 419.64 286C419.64 283.947 420.053 282.133 420.88 280.56C421.707 278.987 422.853 277.76 424.32 276.88C425.813 275.973 427.507 275.52 429.4 275.52C431.32 275.52 433.013 275.973 434.48 276.88C435.973 277.76 437.133 278.987 437.96 280.56C438.787 282.133 439.2 283.947 439.2 286C439.2 288.053 438.787 289.867 437.96 291.44C437.133 293.013 435.987 294.253 434.52 295.16C433.053 296.04 431.373 296.48 429.48 296.48ZM429.48 294.28C430.92 294.28 432.187 293.933 433.28 293.24C434.373 292.52 435.227 291.547 435.84 290.32C436.48 289.067 436.8 287.627 436.8 286C436.8 284.373 436.48 282.947 435.84 281.72C435.227 280.467 434.36 279.493 433.24 278.8C432.12 278.08 430.84 277.72 429.4 277.72C427.96 277.72 426.68 278.08 425.56 278.8C424.467 279.493 423.6 280.467 422.96 281.72C422.347 282.947 422.04 284.373 422.04 286C422.04 287.627 422.36 289.067 423 290.32C423.64 291.547 424.52 292.52 425.64 293.24C426.76 293.933 428.04 294.28 429.48 294.28ZM445.004 285.04C445.004 282.88 445.404 281.133 446.204 279.8C447.031 278.467 448.084 277.493 449.364 276.88C450.671 276.24 452.044 275.92 453.484 275.92V278.12C452.311 278.12 451.177 278.333 450.084 278.76C449.017 279.16 448.137 279.853 447.444 280.84C446.751 281.8 446.404 283.12 446.404 284.8L445.004 285.04ZM444.004 296V276H446.404V296H444.004ZM464.135 296.48C462.295 296.48 460.855 296 459.815 295.04C458.775 294.053 458.255 292.667 458.255 290.88V269.76H460.655V290.88C460.655 291.947 460.961 292.787 461.575 293.4C462.188 293.987 463.041 294.28 464.135 294.28C464.455 294.28 464.761 294.24 465.055 294.16C465.375 294.053 465.828 293.8 466.415 293.4L467.415 295.48C466.695 295.907 466.095 296.173 465.615 296.28C465.135 296.413 464.641 296.48 464.135 296.48ZM454.695 278.2V276H467.015V278.2H454.695ZM471.621 296V268H474.021V296H471.621ZM485.981 296V285.76H488.381V296H485.981ZM485.981 285.76C485.981 283.547 485.714 281.867 485.181 280.72C484.674 279.573 483.968 278.8 483.061 278.4C482.181 277.973 481.181 277.76 480.061 277.76C478.168 277.76 476.688 278.467 475.621 279.88C474.554 281.267 474.021 283.213 474.021 285.72H472.541C472.541 283.587 472.848 281.76 473.461 280.24C474.074 278.72 474.968 277.56 476.141 276.76C477.341 275.933 478.794 275.52 480.501 275.52C482.048 275.52 483.408 275.84 484.581 276.48C485.781 277.093 486.714 278.08 487.381 279.44C488.074 280.8 488.408 282.6 488.381 284.84V285.76H485.981ZM511.01 296.48C509.17 296.48 507.73 296 506.69 295.04C505.65 294.053 505.13 292.667 505.13 290.88V269.76H507.53V290.88C507.53 291.947 507.836 292.787 508.45 293.4C509.063 293.987 509.916 294.28 511.01 294.28C511.33 294.28 511.636 294.24 511.93 294.16C512.25 294.053 512.703 293.8 513.29 293.4L514.29 295.48C513.57 295.907 512.97 296.173 512.49 296.28C512.01 296.413 511.516 296.48 511.01 296.48ZM501.57 278.2V276H513.89V278.2H501.57ZM518.496 296V268H520.896V296H518.496ZM532.856 296V285.76H535.256V296H532.856ZM532.856 285.76C532.856 283.547 532.589 281.867 532.056 280.72C531.549 279.573 530.843 278.8 529.936 278.4C529.056 277.973 528.056 277.76 526.936 277.76C525.043 277.76 523.563 278.467 522.496 279.88C521.429 281.267 520.896 283.213 520.896 285.72H519.416C519.416 283.587 519.723 281.76 520.336 280.24C520.949 278.72 521.843 277.56 523.016 276.76C524.216 275.933 525.669 275.52 527.376 275.52C528.923 275.52 530.283 275.84 531.456 276.48C532.656 277.093 533.589 278.08 534.256 279.44C534.949 280.8 535.283 282.6 535.256 284.84V285.76H532.856ZM549.285 296.48C547.365 296.48 545.658 296.04 544.165 295.16C542.698 294.253 541.538 293.013 540.685 291.44C539.858 289.867 539.445 288.053 539.445 286C539.445 283.947 539.858 282.133 540.685 280.56C541.511 278.987 542.645 277.76 544.085 276.88C545.551 275.973 547.218 275.52 549.085 275.52C550.978 275.52 552.578 275.987 553.885 276.92C555.218 277.827 556.231 279.093 556.925 280.72C557.618 282.32 557.965 284.173 557.965 286.28H540.885L541.805 285.52C541.805 287.36 542.111 288.933 542.725 290.24C543.338 291.547 544.205 292.547 545.325 293.24C546.471 293.933 547.791 294.28 549.285 294.28C550.831 294.28 552.138 293.907 553.205 293.16C554.298 292.387 555.151 291.4 555.765 290.2L557.765 291.44C557.258 292.427 556.591 293.307 555.765 294.08C554.965 294.827 554.018 295.413 552.925 295.84C551.831 296.267 550.618 296.48 549.285 296.48ZM542.005 284.8L541.005 284.08H556.405L555.405 284.84C555.405 283.427 555.138 282.187 554.605 281.12C554.098 280.053 553.378 279.227 552.445 278.64C551.511 278.027 550.391 277.72 549.085 277.72C547.805 277.72 546.618 278.027 545.525 278.64C544.458 279.227 543.605 280.053 542.965 281.12C542.325 282.16 542.005 283.387 542.005 284.8ZM582.123 296.48C580.55 296.48 579.163 296.32 577.963 296C576.79 295.653 575.777 295.187 574.923 294.6C574.07 294.013 573.363 293.36 572.803 292.64C572.27 291.92 571.857 291.16 571.563 290.36L573.963 289.44C574.417 290.693 575.31 291.8 576.643 292.76C577.977 293.693 579.603 294.16 581.523 294.16C583.977 294.16 585.883 293.693 587.243 292.76C588.603 291.8 589.283 290.547 589.283 289C589.283 287.507 588.657 286.32 587.403 285.44C586.15 284.533 584.523 283.827 582.523 283.32L579.683 282.6C578.457 282.28 577.31 281.827 576.243 281.24C575.203 280.627 574.363 279.853 573.723 278.92C573.083 277.987 572.763 276.84 572.763 275.48C572.763 272.973 573.563 271.027 575.163 269.64C576.763 268.227 579.097 267.52 582.163 267.52C584.003 267.52 585.59 267.84 586.923 268.48C588.257 269.093 589.323 269.867 590.123 270.8C590.95 271.707 591.497 272.627 591.763 273.56L589.403 274.48C588.817 273.013 587.857 271.88 586.523 271.08C585.217 270.253 583.63 269.84 581.763 269.84C579.79 269.84 578.217 270.32 577.043 271.28C575.897 272.24 575.323 273.533 575.323 275.16C575.323 276.627 575.777 277.733 576.683 278.48C577.59 279.2 578.777 279.747 580.243 280.12L583.083 280.8C585.91 281.467 588.07 282.533 589.563 284C591.083 285.44 591.843 286.987 591.843 288.64C591.843 290.053 591.483 291.36 590.763 292.56C590.043 293.733 588.963 294.68 587.523 295.4C586.083 296.12 584.283 296.48 582.123 296.48ZM620.211 296L629.091 268H631.651L622.811 296H620.211ZM603.091 296L594.451 268H597.011L605.691 296H603.091ZM603.291 296L611.771 268H614.331L605.891 296H603.291ZM620.011 296L611.771 268H614.331L622.611 296H620.011ZM636.059 296V268H652.179V270.32H638.619V280.4H651.219V282.72H638.619V293.68H652.179V296H636.059ZM671.21 296L671.01 293V285.28C671.01 283.573 670.81 282.173 670.41 281.08C670.036 279.96 669.436 279.12 668.61 278.56C667.81 278 666.756 277.72 665.45 277.72C664.25 277.72 663.236 277.96 662.41 278.44C661.61 278.92 660.943 279.667 660.41 280.68L658.25 279.72C658.81 278.76 659.436 277.973 660.13 277.36C660.85 276.747 661.65 276.293 662.53 276C663.41 275.68 664.383 275.52 665.45 275.52C667.236 275.52 668.716 275.88 669.89 276.6C671.063 277.32 671.943 278.4 672.53 279.84C673.116 281.28 673.41 283.093 673.41 285.28V296H671.21ZM665.05 296.48C662.703 296.48 660.863 295.947 659.53 294.88C658.223 293.787 657.57 292.28 657.57 290.36C657.57 288.387 658.223 286.853 659.53 285.76C660.863 284.667 662.703 284.12 665.05 284.12H671.05V286.32H665.37C663.45 286.32 662.063 286.68 661.21 287.4C660.383 288.093 659.97 289.08 659.97 290.36C659.97 291.587 660.396 292.547 661.25 293.24C662.13 293.933 663.343 294.28 664.89 294.28C666.17 294.28 667.263 294.027 668.17 293.52C669.103 292.987 669.81 292.213 670.29 291.2C670.77 290.187 671.01 288.933 671.01 287.44H672.41C672.41 290.16 671.756 292.347 670.45 294C669.17 295.653 667.37 296.48 665.05 296.48ZM686.049 296.48C684.209 296.48 682.769 296 681.729 295.04C680.689 294.053 680.169 292.667 680.169 290.88V269.76H682.569V290.88C682.569 291.947 682.875 292.787 683.489 293.4C684.102 293.987 684.955 294.28 686.049 294.28C686.369 294.28 686.675 294.24 686.969 294.16C687.289 294.053 687.742 293.8 688.329 293.4L689.329 295.48C688.609 295.907 688.009 296.173 687.529 296.28C687.049 296.413 686.555 296.48 686.049 296.48ZM676.609 278.2V276H688.929V278.2H676.609Z" fill="white"/>
</svg>
